<svg width="64" height="65" viewBox="0 0 64 65" fill="none" xmlns="http://www.w3.org/2000/svg">
<path d="M62.1246 42.2168H47.6663V62.9668C47.6663 63.6242 47.5519 64.2549 47.3438 64.8418H62.1246C63.1601 64.8418 63.9996 64.0023 63.9996 62.9668V44.0918C63.9996 43.0563 63.1601 42.2168 62.1246 42.2168Z" fill="#F75C03"/>
<path d="M16.3334 38.4668H1.875C0.8395 38.4668 0 39.3063 0 40.3418V62.9668C0 64.0023 0.8395 64.8418 1.875 64.8418H16.6559C16.4477 64.2549 16.3334 63.6242 16.3334 62.9668V38.4668Z" fill="#F75C03"/>
<path d="M48.5148 12.9299L45.4662 8.33667L48.5137 3.7553C49.3413 2.51105 48.4475 0.841797 46.9526 0.841797H32.0059C30.9704 0.841797 30.1309 1.6813 30.1309 2.7168V23.4668H33.8809V15.8418H46.9526C48.4447 15.8418 49.3416 14.1758 48.5148 12.9299Z" fill="#F75C03"/>
<path d="M42.0422 27.2168H21.959C20.9235 27.2168 20.084 28.0563 20.084 29.0918V62.9668C20.084 64.0023 20.9235 64.8418 21.959 64.8418H42.0422C43.0777 64.8418 43.9172 64.0023 43.9172 62.9668V29.0918C43.9172 28.0563 43.0777 27.2168 42.0422 27.2168ZM34.5006 45.9668H29.0542C28.0187 45.9668 27.1792 45.1273 27.1792 44.0918C27.1792 43.0563 28.0187 42.2168 29.0542 42.2168H30.1256V38.4668H29.6792C28.6437 38.4668 27.8042 37.6273 27.8042 36.5918C27.8042 35.5563 28.6437 34.7168 29.6792 34.7168H32.0006C33.0361 34.7168 33.8756 35.5563 33.8756 36.5918V42.2168H34.5006C35.5361 42.2168 36.3756 43.0563 36.3756 44.0918C36.3756 45.1273 35.5361 45.9668 34.5006 45.9668Z" fill="#F75C03"/>
</svg>
