<svg width="64" height="64" viewBox="0 0 64 64" fill="none" xmlns="http://www.w3.org/2000/svg">
<path d="M27.2654 52.7926C25.8772 51.4045 23.6682 51.3394 22.2017 52.5951L24.5468 50.2501C26.0046 48.7925 26.0046 46.4292 24.5468 44.9717C23.1586 43.5836 20.9493 43.5185 19.4827 44.7745L20.5963 43.6609C22.0541 42.2032 22.0541 39.84 20.5963 38.3825C19.1386 36.9249 16.7752 36.9249 15.3175 38.3825L11.5638 42.1359C12.8205 40.6695 12.7556 38.4601 11.3671 37.0717C9.90933 35.6141 7.54595 35.6141 6.0882 37.0717L3.44683 39.713C1.98908 41.1706 1.98908 43.5339 3.44683 44.9914C4.85483 46.3991 7.10733 46.4469 8.57308 45.1352C7.26133 46.6007 7.30908 48.8531 8.71695 50.261C10.1248 51.6687 12.3775 51.7165 13.8431 50.405C12.5313 51.8705 12.5791 54.1229 13.9871 55.5307C15.3951 56.9385 17.6476 56.9862 19.1133 55.6746C17.8016 57.1401 17.8493 59.3925 19.2572 60.8004C20.715 62.258 23.0783 62.258 24.5361 60.8004L27.2654 58.0711C28.7232 56.6134 28.7232 54.2502 27.2654 52.7926Z" fill="#F75C03"/>
<path d="M51.9707 46.4773C53.5524 47.9586 56.0353 47.9283 57.579 46.3847C59.1547 44.8092 59.1547 42.2549 57.579 40.6794L38.4012 21.5028L33.7163 26.1864C30.5363 29.3664 25.3621 29.3669 22.1823 26.1872C19.0021 23.0069 19.0017 17.8328 22.1814 14.6529L28.1326 8.67931L23.7092 8.38281L5.51581 26.5744L5.03906 33.1881C7.94706 31.5484 11.7341 32.0018 14.1604 34.5864C19.0947 31.6764 25.4289 35.2071 25.4242 41.0277C28.4184 42.6126 30.0409 46.0757 29.1589 49.5032C32.3074 51.8807 33.0092 56.1922 31.0134 59.4008L33.5089 61.8963C35.0846 63.4718 37.639 63.4718 39.2147 61.8963C40.5587 60.5524 40.7553 58.4968 39.8064 56.9436C41.3912 58.2369 43.7294 58.1451 45.207 56.6677C46.7474 55.1274 46.7809 52.6521 45.3093 51.0701L45.6796 51.4403C47.2552 53.0158 49.8097 53.0158 51.3853 51.4403C52.7322 50.0933 52.9265 48.0317 51.9707 46.4773Z" fill="#F75C03"/>
<path d="M15.1178 2.52592L0.5475 17.095C-0.1825 17.8249 -0.1825 19.0084 0.5475 19.7384L3.807 22.9978L21.0209 5.78567L17.761 2.52592C17.031 1.79605 15.8477 1.79605 15.1178 2.52592Z" fill="#F75C03"/>
<path d="M24.8255 23.5448C26.5478 25.267 29.3505 25.2667 31.0734 23.5438L37.5465 17.0723C38.0323 16.5865 38.8228 16.5865 39.3086 17.0724L56.0095 33.7733L58.6733 24.0348L40.5428 5.9043C34.1485 7.88805 34.3476 7.7388 34.149 7.93742L24.8246 17.297C23.1024 19.0193 23.1028 21.822 24.8255 23.5448Z" fill="#F75C03"/>
<path d="M63.4518 18.1819C64.1818 17.4519 64.1817 16.2686 63.4517 15.5387L49.0665 1.15481C48.3366 0.424938 47.1532 0.424938 46.4233 1.15494L43.752 3.82631L60.7797 20.8541L63.4518 18.1819Z" fill="#F75C03"/>
</svg>
