<svg width="54" height="65" viewBox="0 0 54 65" fill="none" xmlns="http://www.w3.org/2000/svg">
<path d="M17.625 12.0918H36.375C37.4105 12.0918 38.25 11.2523 38.25 10.2168V6.4668C38.25 3.36517 35.7266 0.841797 32.625 0.841797H21.375C18.2734 0.841797 15.75 3.36517 15.75 6.4668V10.2168C15.75 11.2523 16.5895 12.0918 17.625 12.0918Z" fill="#F75C03"/>
<path d="M15.75 53.4668C16.7855 53.4668 17.625 52.6273 17.625 51.5918C17.625 50.5563 16.7855 49.7168 15.75 49.7168C14.7145 49.7168 13.875 50.5563 13.875 51.5918C13.875 52.6273 14.7145 53.4668 15.75 53.4668Z" fill="#F75C03"/>
<path d="M51.375 4.8418H41.8561C42.09 6.1738 41.9636 6.7648 42 10.2168C42 13.3184 39.4766 15.8418 36.375 15.8418H17.625C14.5234 15.8418 12 13.3184 12 10.2168C12.0365 6.75517 11.9099 6.17442 12.1439 4.8418H2.625C1.5895 4.8418 0.75 5.6813 0.75 6.7168V62.9668C0.75 64.0023 1.5895 64.8418 2.625 64.8418H51.375C52.4105 64.8418 53.25 64.0023 53.25 62.9668V6.7168C53.25 5.6813 52.4105 4.8418 51.375 4.8418ZM15.75 57.2168C12.6484 57.2168 10.125 54.6934 10.125 51.5918C10.125 48.4902 12.6484 45.9668 15.75 45.9668C18.8516 45.9668 21.375 48.4902 21.375 51.5918C21.375 54.6934 18.8516 57.2168 15.75 57.2168ZM39.5757 49.1675L28.3257 60.4175C27.5935 61.1499 26.4063 61.1498 25.6741 60.4175C24.9419 59.6853 24.9419 58.4982 25.6741 57.7659L35.3069 48.1332L14.71 34.4019C13.7244 33.7448 13.5894 32.3508 14.4242 31.516L22.5984 23.3418H21.375C20.3395 23.3418 19.5 22.5023 19.5 21.4668C19.5 20.4313 20.3395 19.5918 21.375 19.5918H27.125C28.1605 19.5918 29 20.4313 29 21.4668V27.0918C29 28.1273 28.1605 28.9668 27.125 28.9668C26.0895 28.9668 25.25 28.1273 25.25 27.0918V25.9934L18.693 32.5504L39.29 46.2817C40.2756 46.9388 40.4106 48.3328 39.5757 49.1675ZM42.0757 30.4535C42.808 31.1858 42.808 32.3729 42.0757 33.1052C41.3435 33.8375 40.1563 33.8374 39.4241 33.1052L38.1561 31.8372L36.8881 33.1052C36.1559 33.8375 34.9686 33.8374 34.2365 33.1052C33.5042 32.3729 33.5042 31.1858 34.2365 30.4535L35.5045 29.1855L34.2365 27.9175C33.5042 27.1853 33.5042 25.9982 34.2365 25.2659C34.9686 24.5337 36.1559 24.5337 36.8881 25.2659L38.1561 26.5339L39.4241 25.2659C40.1563 24.5337 41.3435 24.5337 42.0757 25.2659C42.808 25.9982 42.808 27.1853 42.0757 27.9175L40.8078 29.1855L42.0757 30.4535Z" fill="#F75C03"/>
</svg>
