<svg width="96" height="96" viewBox="0 0 96 96" fill="none" xmlns="http://www.w3.org/2000/svg">
<path d="M47.7297 48.4555C51.9976 48.4555 55.4575 44.9957 55.4575 40.7278C55.4575 36.4598 51.9976 33 47.7297 33C43.4618 33 40.002 36.4598 40.002 40.7278C40.002 44.9957 43.4618 48.4555 47.7297 48.4555Z" fill="#F75C03"/>
<path d="M47.9989 0C21.4901 0 0 21.4908 0 47.9995C0 74.5076 21.4901 96 47.9989 96C74.5076 96 95.9994 74.5076 95.9994 47.9995C95.9994 21.4908 74.5076 0 47.9989 0ZM47.8994 21.9772C47.9333 21.9772 47.9666 21.9756 47.9998 21.974C48.0331 21.9756 48.0661 21.9772 48.1003 21.9772C56.1881 22.1049 62.7673 28.7894 62.7673 36.8791C62.7673 46.7697 52.1996 56.7849 47.9998 60.3734C47.7192 60.1334 47.4081 59.863 47.0753 59.5667C47.0696 59.5615 47.0645 59.5574 47.0597 59.5526C42.4119 55.4226 33.2327 46.0981 33.2327 36.8791C33.2323 28.7894 39.8122 22.1052 47.8994 21.9772ZM48.2082 74.3207C39.3559 74.3207 30.3939 71.7812 30.3939 66.9293C30.3939 63.5242 34.8067 61.2598 40.4961 60.2108C41.5966 61.3171 42.6382 62.2925 43.5521 63.1065C37.3549 63.7987 33.7139 65.7607 33.7139 66.9283C33.7139 68.3632 39.2164 71.0001 48.2082 71.0001C57.1999 71.0001 62.7033 68.3632 62.7033 66.9283C62.7033 65.7367 58.9087 63.7254 52.4866 63.0717C53.4085 62.2483 54.4585 61.264 55.5673 60.1462C61.4275 61.1664 66.0231 63.4534 66.0231 66.9293C66.0231 71.7812 57.061 74.3207 48.2082 74.3207Z" fill="#F75C03"/>
</svg>
