<svg width="34" height="53" viewBox="0 0 34 53" fill="none" xmlns="http://www.w3.org/2000/svg">
<path d="M25.513 0.859375H7.7376C3.57448 0.859375 0.1875 4.24633 0.1875 8.40943V45.0593C0.1875 49.2224 3.57448 52.6094 7.7376 52.6094H25.513C29.6761 52.6094 33.0631 49.2224 33.0631 45.0593V8.40943C33.0631 4.24633 29.6761 0.859375 25.513 0.859375ZM14.406 3.36888H18.8446C19.2238 3.36888 19.531 3.67609 19.531 4.05524C19.531 4.43439 19.2238 4.74161 18.8446 4.74161H14.406C14.0268 4.74161 13.7196 4.43439 13.7196 4.05524C13.7196 3.67609 14.0268 3.36888 14.406 3.36888ZM16.6253 49.5387C15.4122 49.5387 14.4289 48.5554 14.4289 47.3423C14.4289 46.1294 15.4122 45.1459 16.6253 45.1459C17.8383 45.1459 18.8217 46.1294 18.8217 47.3423C18.8217 48.5553 17.8384 49.5387 16.6253 49.5387ZM29.6314 40.7073C29.6314 41.4623 29.0137 42.0801 28.2586 42.0801H4.99211C4.2371 42.0801 3.61936 41.4623 3.61936 40.7073V8.58528C3.61936 7.83027 4.2371 7.21254 4.99211 7.21254H28.2586C29.0137 7.21254 29.6314 7.83027 29.6314 8.58528V40.7073Z" fill="white"/>
</svg>
