<svg width="64" height="65" viewBox="0 0 64 65" fill="none" xmlns="http://www.w3.org/2000/svg">
<path d="M63.9511 62.5469V25.3418C63.9511 24.3063 63.1116 23.4668 62.0761 23.4668H54.4114C53.3759 23.4668 52.5364 24.3063 52.5364 25.3418V61.0918H48.9511V32.8418C48.9511 31.8063 48.1116 30.9668 47.0761 30.9668H39.4114C38.3759 30.9668 37.5364 31.8063 37.5364 32.8418V61.0918H33.9636V32.8418C33.9636 31.8063 33.1241 30.9668 32.0886 30.9668H24.4239C23.3884 30.9668 22.5489 31.8063 22.5489 32.8418V61.0918H18.8812V44.0918C18.8812 43.0563 18.0417 42.2168 17.0062 42.2168H9.34162C8.30612 42.2168 7.46662 43.0563 7.46662 44.0918V61.0918H3.75V2.7168C3.75 1.6813 2.9105 0.841797 1.875 0.841797C0.8395 0.841797 0 1.6813 0 2.7168V62.9668C0 64.0023 0.8395 64.8418 1.875 64.8418H62.125C63.3134 64.8418 64.2245 63.7398 63.9511 62.5469Z" fill="#F75C03"/>
<path d="M14.3749 34.342L28.8813 23.4668H43.244C43.7413 23.4668 44.2182 23.2693 44.5698 22.9175L56.369 11.1183V14.0918C56.369 15.1273 57.2085 15.9668 58.244 15.9668C59.2795 15.9668 60.119 15.1273 60.119 14.0918C60.1189 12.3137 60.1193 6.7083 60.1188 6.5863C60.1157 5.56267 59.2834 4.7168 58.244 4.7168H50.8815C49.846 4.7168 49.0065 5.5563 49.0065 6.5918C49.0065 7.6273 49.846 8.4668 50.8815 8.4668H53.7174L42.4674 19.7168H28.2564C27.8508 19.7168 27.4562 19.8483 27.1317 20.0915L12.1254 31.3415C11.2969 31.9628 11.1287 33.1379 11.7499 33.9665C12.369 34.7924 13.5439 34.965 14.3749 34.342Z" fill="#F75C03"/>
</svg>
