<svg width="69" height="69" viewBox="0 0 69 69" fill="none" xmlns="http://www.w3.org/2000/svg">
<rect y="0.128906" width="68.7143" height="68.7435" rx="2" fill="#F75C03"/>
<g clip-path="url(#clip0)">
<path d="M49.4065 36.0804V30.0312L43.3574 36.0804H49.4065Z" fill="white"/>
<path d="M35.406 50.0804V44.0312L29.3574 50.0804H35.406Z" fill="white"/>
<path d="M47.6967 19.0312H21.1253C19.5974 19.0331 18.3592 20.2712 18.3574 21.7991V48.3705C18.3585 49.2873 19.1014 50.0303 20.0182 50.0312H25.1901C25.6309 50.0325 26.0538 49.8574 26.3648 49.545L33.4654 42.4442L33.4667 42.4429L41.7693 34.1401L41.7696 34.1398L48.8709 27.0383C49.1813 26.7262 49.3561 26.3043 49.3574 25.8641V20.692C49.3565 19.7752 48.6135 19.0323 47.6967 19.0312ZM23.3396 47.817C21.811 47.817 20.5717 46.5778 20.5717 45.0491C20.5717 43.5205 21.8109 42.2812 23.3396 42.2812C24.8683 42.2812 26.1074 43.5205 26.1074 45.0491C26.1056 46.577 24.8675 47.8152 23.3396 47.817ZM23.3396 26.7812C21.811 26.7812 20.5717 25.542 20.5717 24.0134C20.5717 22.4848 21.811 21.2456 23.3396 21.2456C24.8682 21.2456 26.1074 22.4847 26.1074 24.0134C26.1056 25.5413 24.8675 26.7794 23.3396 26.7812ZM44.3753 26.7812C42.8466 26.7812 41.6074 25.542 41.6074 24.0134C41.6074 22.4848 42.8466 21.2456 44.3753 21.2456C45.9039 21.2456 47.1431 22.4848 47.1431 24.0134C47.1413 25.5413 45.9032 26.7794 44.3753 26.7812Z" fill="white"/>
</g>
<defs>
<clipPath id="clip0">
<rect width="32" height="32" fill="white" transform="translate(18.3574 19.0312)"/>
</clipPath>
</defs>
</svg>
