<svg width="64" height="65" viewBox="0 0 64 65" fill="none" xmlns="http://www.w3.org/2000/svg">
<path d="M33.9757 51.245L41.2814 43.9393L35.572 38.23C33.3135 40.9972 28.9359 41.5903 26.0942 38.7485C23.2602 35.9147 23.8477 31.532 26.6129 29.2709L20.9025 23.5605L13.5535 30.9095C17.3363 31.574 19.0505 36.3699 16.1884 39.2322C13.3407 42.0799 8.53228 40.3898 7.86491 36.5983L0.598781 43.8643C-0.199594 44.6627 -0.199594 45.9572 0.598781 46.7555L6.45103 52.6078C2.74141 53.3532 1.11478 58.0904 3.93366 60.9092C6.76591 63.7414 11.4925 62.0928 12.234 58.3908L18.0863 64.243C18.8847 65.0414 20.1792 65.0414 20.9775 64.243L28.2002 57.0203C28.9388 60.7367 33.6828 62.368 36.5035 59.5473C39.3389 56.7123 37.6844 51.9799 33.9757 51.245Z" fill="#F75C03"/>
<path d="M63.4018 18.9282L57.4851 13.0114C61.3083 12.3739 63.0234 7.53845 60.1642 4.6792C57.2904 1.80545 52.4676 3.5447 51.8329 7.35932L45.9142 1.44058C45.1158 0.642203 43.8213 0.642203 43.0229 1.44058L36.1453 8.3182C35.6232 4.37845 30.6887 2.5717 27.7882 5.4722C24.8733 8.38707 26.7051 13.3082 30.6352 13.8283L23.5547 20.9088L31.1169 28.4711C32.1822 29.5363 31.6156 31.3643 30.1347 31.6402C28.1734 32.0057 27.2129 34.5636 28.7464 36.0969C30.2876 37.6381 32.8371 36.6696 33.2023 34.7081C33.4779 33.2267 35.3063 32.6602 36.3714 33.7256L43.9337 41.2878L51.1714 34.0501C47.0024 33.7833 44.9743 28.6581 47.9742 25.6582C50.9596 22.6728 56.1003 24.6739 56.3661 28.8554L63.4019 21.8196C64.2002 21.0211 64.2002 19.7266 63.4018 18.9282Z" fill="#F75C03"/>
</svg>
