<svg width="64" height="65" viewBox="0 0 64 65" fill="none" xmlns="http://www.w3.org/2000/svg">
<path d="M9.375 49.8418C4.20563 49.8418 0 54.0474 0 59.2168V62.9668C0 64.0023 0.8395 64.8418 1.875 64.8418H16.875C17.9105 64.8418 18.75 64.0023 18.75 62.9668V59.2168C18.75 54.0474 14.5444 49.8418 9.375 49.8418Z" fill="#F75C03"/>
<path d="M54.625 49.8418C49.4556 49.8418 45.25 54.0474 45.25 59.2168V62.9668C45.25 64.0023 46.0895 64.8418 47.125 64.8418H62.125C63.1605 64.8418 64 64.0023 64 62.9668V59.2168C64 54.0474 59.7944 49.8418 54.625 49.8418Z" fill="#F75C03"/>
<path d="M32 49.8418C26.8306 49.8418 22.625 54.0474 22.625 59.2168V62.9668C22.625 64.0023 23.4645 64.8418 24.5 64.8418H39.5C40.5355 64.8418 41.375 64.0023 41.375 62.9668V59.2168C41.375 54.0474 37.1694 49.8418 32 49.8418Z" fill="#F75C03"/>
<path d="M52.7559 27.2793V38.9143C50.5735 39.6883 49.0059 41.7724 49.0059 44.2168C49.0059 47.3184 51.5292 49.8418 54.6309 49.8418C57.7325 49.8418 60.2559 47.3184 60.2559 44.2168C60.2559 41.7724 58.6882 39.6883 56.5059 38.9143V25.4043C56.5059 24.3688 55.6664 23.5293 54.6309 23.5293H47.9379C48.5881 21.7332 48.9434 19.797 48.9434 17.7793C48.9434 8.43992 41.3452 0.841797 32.0059 0.841797C20.2611 0.841797 12.0985 12.5482 16.0739 23.5293H9.49961C8.46411 23.5293 7.62461 24.3688 7.62461 25.4043V38.874C5.38061 39.6135 3.75586 41.7283 3.75586 44.2168C3.75586 47.3184 6.27923 49.8418 9.38086 49.8418C12.4825 49.8418 15.0059 47.3184 15.0059 44.2168C15.0059 41.817 13.4949 39.7645 11.3746 38.958V27.2793H17.9904C20.7084 31.2764 25.0897 34.0547 30.1309 34.6124V38.9143C27.9485 39.6883 26.3809 41.7724 26.3809 44.2168C26.3809 47.3184 28.9042 49.8418 32.0059 49.8418C35.1075 49.8418 37.6309 47.3184 37.6309 44.2168C37.6309 41.7724 36.0632 39.6883 33.8809 38.9143V34.6124C38.922 34.0547 43.3034 31.2763 46.0214 27.2793H52.7559ZM41.1837 27.2392C40.3214 22.9542 36.5287 19.7168 31.9934 19.7168C27.4652 19.7168 23.6771 22.9437 22.8067 27.2185C20.348 24.8218 18.8184 21.476 18.8184 17.7793C18.8184 10.5077 24.7342 4.5918 32.0059 4.5918C39.2775 4.5918 45.1934 10.5077 45.1934 17.7793C45.1934 21.4867 43.655 24.841 41.1837 27.2392Z" fill="#F75C03"/>
<path d="M32 19.7168C35.1066 19.7168 37.625 17.1984 37.625 14.0918C37.625 10.9852 35.1066 8.4668 32 8.4668C28.8934 8.4668 26.375 10.9852 26.375 14.0918C26.375 17.1984 28.8934 19.7168 32 19.7168Z" fill="#F75C03"/>
</svg>
