<svg width="320" height="250" viewBox="0 0 320 250" fill="none" xmlns="http://www.w3.org/2000/svg">
<path d="M267.233 208.107C272.975 208.107 277.63 203.452 277.63 197.71C277.63 191.968 272.975 187.313 267.233 187.313C261.491 187.313 256.836 191.968 256.836 197.71C256.836 203.452 261.491 208.107 267.233 208.107Z" fill="#00055A"/>
<path d="M135.536 208.107C141.279 208.107 145.933 203.452 145.933 197.71C145.933 191.968 141.279 187.313 135.536 187.313C129.794 187.313 125.139 191.968 125.139 197.71C125.139 203.452 129.794 208.107 135.536 208.107Z" fill="#00055A"/>
<path d="M267.23 145.723H135.535C123.825 145.723 113.043 149.662 104.343 156.219V93.7381C104.343 89.0232 101.169 84.898 96.6136 83.6898C92.0712 82.4854 87.2659 84.4882 84.9169 88.5804L1.74046 234.139C-2.20849 241.068 2.79356 249.694 10.7699 249.694H52.3581C69.3733 249.694 84.4573 241.442 93.9463 228.769C103.435 241.442 118.519 249.694 135.535 249.694H267.23C295.896 249.694 319.216 226.374 319.216 197.709C319.216 169.043 295.897 145.723 267.23 145.723ZM135.535 228.9C118.335 228.9 104.343 214.908 104.343 197.709C104.343 180.509 118.335 166.517 135.535 166.517C152.734 166.517 166.726 180.509 166.726 197.709C166.726 214.908 152.734 228.9 135.535 228.9ZM267.23 228.9C250.031 228.9 236.039 214.908 236.039 197.709C236.039 180.509 250.031 166.517 267.23 166.517C284.43 166.517 298.422 180.509 298.422 197.709C298.422 214.908 284.43 228.9 267.23 228.9Z" fill="#00055A"/>
<path d="M267.23 0.164062H204.848C200.076 0.164062 195.92 3.40991 194.763 8.03954L175.938 83.3411H168.216V71.9165C168.216 66.1734 163.365 63.8429 157.625 63.8429C151.885 63.8429 145.932 67.2009 145.932 72.944V88.9677C133.522 96.1725 125.138 109.576 125.138 124.929V125.759C128.543 125.269 131.995 124.929 135.535 124.929H267.23C278.402 124.929 288.953 127.534 298.422 132.051V31.3552C298.422 14.1557 284.43 0.164062 267.23 0.164062ZM256.833 72.944C256.833 78.6859 252.178 83.3411 246.436 83.3411H199.307L215.78 20.9588H246.436C252.178 20.9588 256.833 25.6139 256.833 31.3558V72.944Z" fill="#00055A"/>
</svg>
